<mxfile host="app.diagrams.net" modified="2023-07-29T13:06:41.345Z" agent="Mozilla/5.0 (Windows NT 10.0; Win64; x64) AppleWebKit/537.36 (KHTML, like Gecko) Chrome/115.0.0.0 Safari/537.36" etag="CloqQ6ELH8ICgxLA2fsp" version="21.6.6" type="github">
  <diagram name="第 1 页" id="HhNDj8HrSUt-IK6_C2Jm">
    <mxGraphModel dx="880" dy="446" grid="1" gridSize="10" guides="1" tooltips="1" connect="1" arrows="1" fold="1" page="1" pageScale="1" pageWidth="827" pageHeight="1169" math="0" shadow="0">
      <root>
        <mxCell id="0" />
        <mxCell id="1" parent="0" />
        <mxCell id="pgoeOqjfAEoLgi5bF9Kd-1" value="虚拟地址" style="text;html=1;strokeColor=#b85450;fillColor=#f8cecc;align=center;verticalAlign=middle;whiteSpace=wrap;rounded=0;dashed=1;" vertex="1" parent="1">
          <mxGeometry x="20" y="177" width="600" height="30" as="geometry" />
        </mxCell>
        <mxCell id="pgoeOqjfAEoLgi5bF9Kd-3" value="PGD" style="rounded=0;whiteSpace=wrap;html=1;fillColor=#f5f5f5;fontColor=#333333;strokeColor=#666666;" vertex="1" parent="1">
          <mxGeometry x="20" y="210" width="120" height="50" as="geometry" />
        </mxCell>
        <mxCell id="pgoeOqjfAEoLgi5bF9Kd-4" value="PMD" style="rounded=0;whiteSpace=wrap;html=1;fillColor=#d5e8d4;strokeColor=#82b366;" vertex="1" parent="1">
          <mxGeometry x="260" y="210" width="120" height="50" as="geometry" />
        </mxCell>
        <mxCell id="pgoeOqjfAEoLgi5bF9Kd-5" value="PUD" style="rounded=0;whiteSpace=wrap;html=1;fillColor=#dae8fc;strokeColor=#6c8ebf;" vertex="1" parent="1">
          <mxGeometry x="140" y="210" width="120" height="50" as="geometry" />
        </mxCell>
        <mxCell id="pgoeOqjfAEoLgi5bF9Kd-6" value="PTE" style="rounded=0;whiteSpace=wrap;html=1;fillColor=#ffe6cc;strokeColor=#d79b00;" vertex="1" parent="1">
          <mxGeometry x="380" y="210" width="120" height="50" as="geometry" />
        </mxCell>
        <mxCell id="pgoeOqjfAEoLgi5bF9Kd-7" value="Offset" style="rounded=0;whiteSpace=wrap;html=1;fillColor=#fff2cc;strokeColor=#d6b656;" vertex="1" parent="1">
          <mxGeometry x="500" y="210" width="120" height="50" as="geometry" />
        </mxCell>
      </root>
    </mxGraphModel>
  </diagram>
</mxfile>
